<?xml version="1.0" ?><!DOCTYPE svg  PUBLIC '-//W3C//DTD SVG 1.0//EN'  'http://www.w3.org/TR/2001/REC-SVG-20010904/DTD/svg10.dtd'><svg enable-background="new 0 0 32 32" height="32px" id="Layer_1" version="1.0" viewBox="0 0 32 32" width="32px" xml:space="preserve" xmlns="http://www.w3.org/2000/svg" xmlns:xlink="http://www.w3.org/1999/xlink"><path d="M31.999,13.045v0.03c0.039,3.793-1.459,6.133-3.376,7.207c-1.885,1.069-3.905,1.028-4.98,1.038H12.221l2.609,2.73  c0.45,0.471,0.434,1.221-0.037,1.669c-0.471,0.452-1.219,0.436-1.671-0.038c-0.223-0.232-0.448-0.466-0.671-0.699  c-0.907-0.948-1.806-1.905-2.715-2.852c-0.652-0.678-2.124-1.82-1.116-2.83c0.007-0.007,4.724-4.727,4.724-4.727  c0.236-0.231,0.539-0.348,0.843-0.348c0.3,0,0.605,0.117,0.833,0.344c0.462,0.464,0.462,1.212,0.003,1.677l-2.713,2.708h11.334  c1.058,0.009,2.625-0.034,3.795-0.723c1.14-0.693,2.16-1.885,2.197-5.156c0-0.014,0-0.029,0.002-0.04  c-0.058-2.591-0.998-3.465-2.205-4.097c-1.238-0.597-2.854-0.629-3.789-0.624H1.182C0.526,8.317,0,7.786,0,7.134  c0-0.652,0.526-1.183,1.182-1.183c0,0.002,22.46,0.002,22.46,0.002c0.967,0.007,2.933-0.024,4.803,0.854  C30.348,7.653,32.045,9.735,31.999,13.045z"/></svg>