<?xml version="1.0" ?><!DOCTYPE svg  PUBLIC '-//W3C//DTD SVG 1.0//EN'  'http://www.w3.org/TR/2001/REC-SVG-20010904/DTD/svg10.dtd'><svg enable-background="new 0 0 32 32" height="32px" id="Layer_1" version="1.0" viewBox="0 0 32 32" width="32px" xml:space="preserve" xmlns="http://www.w3.org/2000/svg" xmlns:xlink="http://www.w3.org/1999/xlink"><path d="M32,7.136c0,0.652-0.525,1.183-1.184,1.183H8.359C7.424,8.313,5.805,8.346,4.571,8.941c-1.21,0.633-2.147,1.506-2.205,4.097  c0,0.01,0,0.024,0.002,0.038c0.037,3.273,1.058,4.464,2.193,5.158c1.173,0.688,2.741,0.73,3.798,0.722h11.331l-2.711-2.709  c-0.457-0.466-0.457-1.213,0.004-1.676c0.229-0.228,0.531-0.343,0.834-0.343s0.607,0.115,0.841,0.346L23.38,19.3  c0.629,0.618,0.247,1.405-0.263,1.944c-1.406,1.486-2.824,2.963-4.241,4.439c-0.452,0.469-1.199,0.487-1.67,0.034  c-0.472-0.448-0.487-1.198-0.037-1.67l2.608-2.729H8.359c-1.078-0.01-3.098,0.031-4.98-1.039c-1.918-1.071-3.412-3.41-3.377-7.203  v-0.029C-0.045,9.736,1.655,7.654,3.555,6.81c1.872-0.881,3.837-0.848,4.804-0.854h22.458C31.475,5.953,32,6.484,32,7.136z"/></svg>